<?xml version="1.0" encoding="utf-8"?>
<!-- Generator: Adobe Illustrator 21.1.0, SVG Export Plug-In . SVG Version: 6.00 Build 0)  -->
<svg version="1.1" id="Capa_1" xmlns="http://www.w3.org/2000/svg" xmlns:xlink="http://www.w3.org/1999/xlink" x="0px" y="0px"
	 viewBox="0 0 64.8 53.8" style="enable-background:new 0 0 64.8 53.8;" xml:space="preserve">
<style type="text/css">
	.st0{fill:#FFFFFF;}
</style>
<path class="st0" d="M63.5,2.7c-0.1-0.3-0.4-0.5-0.7-0.6c-0.3,0-0.7,0.1-0.8,0.4c-1.1,1.6-2.6,2.1-4.4,2.7c-1.4,0.5-2.8,1-4.4,2.1
	c-2.2,1.6-3.2,3.7-2.7,5.8l-0.1,0.1c-0.9-1.3-1.9-2.6-3-3.7C42.5,4.4,35.6,1.3,28.5,1c-0.3,0-0.6,0-0.9,0C19.6,1,12,4.5,6.7,10.7
	c-5.3,6.1-7.6,14.1-6.4,21.9c0.1,0.7,0.2,1.3,0.4,2c1.9,8.6,6.9,15.1,13.7,17.9c1.7,0.7,3.3,1,5,1c4.1,0,7.6-2.2,9.8-6
	c0.8-1.4,1.3-2.9,1.6-4.4c0.1-0.9,0-1.8,0-2.6c-0.1-0.9-0.2-1.7,0-2.6c0.3-1.9,1.7-3.1,3.6-3.1c0.6,0,1.1,0.1,1.7,0.3
	c-0.7,1.2-1.3,2.4-1.8,3.5c-1.1,2.3-1.9,4.2-2.3,5.6c-0.2,0.9-0.9,3.3,0.7,4.4c0.5,0.4,1.2,0.5,1.8,0.4c0.6-0.1,2.5-0.5,7.7-6.4
	c1.4-1.6,2.9-3.5,4.5-5.5c4.1-1.4,7.2-4.8,8.1-8.7c0.2-1,0.3-2,0.3-3.1c1.5-2.4,2.9-4.6,4.2-6.9c0,0,0.1-0.1,0.1-0.1
	c2-0.5,3.6-2.1,4.6-4.2C65.2,10.8,65.1,6.8,63.5,2.7L63.5,2.7z M41.5,17.4c-0.7,1.1-1.9,1.8-3.3,1.8c-0.7,0-1.4-0.2-2-0.6
	c-0.9-0.5-1.5-1.4-1.7-2.4c-0.2-1-0.1-2,0.5-2.9c0.7-1.1,1.9-1.8,3.3-1.8c0.7,0,1.4,0.2,2,0.6c0.9,0.5,1.5,1.4,1.7,2.4
	S42,16.5,41.5,17.4L41.5,17.4z M46.4,24.3c1.9-2.9,4-5.7,5.9-8.2c0.3,0.3,0.7,0.6,1.1,0.8c0.6,0.4,1.3,0.8,2,1
	c-1.6,2.8-3.4,5.6-5.6,8.8c-3.5,5.2-7.2,10-10.3,13.6c-1.7,2-3.3,3.5-4.4,4.5c0.5-1.5,1.3-3.4,2.5-5.8
	C39.8,34.7,42.9,29.5,46.4,24.3L46.4,24.3z M12.4,24.3c-0.7,0-1.4-0.2-2-0.6c-0.9-0.5-1.5-1.4-1.7-2.4c-0.2-1-0.1-2,0.5-2.9
	c0.7-1.1,1.9-1.8,3.3-1.8c0.7,0,1.4,0.2,2,0.6c1.8,1.1,2.3,3.5,1.2,5.3C14.9,23.6,13.7,24.3,12.4,24.3L12.4,24.3z M8.4,32.7
	c0.7-1.1,1.9-1.8,3.3-1.8c0.7,0,1.4,0.2,2,0.6c0.9,0.5,1.5,1.4,1.7,2.4c0.2,1,0.1,2-0.5,2.9c-0.7,1.1-1.9,1.8-3.3,1.8
	c-0.7,0-1.4-0.2-2-0.6c-0.9-0.5-1.5-1.4-1.7-2.4C7.6,34.6,7.8,33.6,8.4,32.7L8.4,32.7z M20.6,10c0.7-1.1,1.9-1.8,3.3-1.8
	c0.7,0,1.4,0.2,2,0.6c1.8,1.1,2.3,3.5,1.2,5.3c-0.7,1.1-1.9,1.8-3.3,1.8c-0.7,0-1.4-0.2-2-0.6c-0.9-0.5-1.5-1.4-1.7-2.4
	S20.1,10.8,20.6,10L20.6,10z M20.6,10"/>
</svg>
