<?xml version="1.0" encoding="utf-8"?>
<!-- Generator: Adobe Illustrator 21.1.0, SVG Export Plug-In . SVG Version: 6.00 Build 0)  -->
<svg version="1.1" id="Capa_1" xmlns="http://www.w3.org/2000/svg" xmlns:xlink="http://www.w3.org/1999/xlink" x="0px" y="0px"
	 viewBox="0 0 1268 212.9" style="enable-background:new 0 0 1268 212.9;" xml:space="preserve">
<style type="text/css">
	.st0{fill:#FFFFFF;}
</style>
<g>
	<path class="st0" d="M45.9,192.5c-3.6,2.1-9.5,3.4-13.9,3.4c-7.7,0-13.8-2.3-18.1-6.9c-4.3-4.6-6.5-10.6-6.5-17.8
		c0-7.3,2.4-13.4,7.2-18.1s10.7-7.2,17.8-7.2c5.1,0,9,0.7,11.7,2.1v2.8c-3.3-1.5-7.2-2.3-11.5-2.3c-6.2,0-11.5,2.1-15.9,6.4
		c-4.3,4.2-6.4,9.7-6.4,16.4c0,6.6,1.9,12,5.8,16c3.9,4,9.2,6.1,16.1,6.1c4.9,0,9.5-1.2,13.7-3.6V192.5z"/>
	<path class="st0" d="M104.6,153.3c4.7,4.8,7,10.7,7,17.8c0,7-2.3,13-7,17.8c-4.6,4.8-10.5,7.1-17.5,7.1c-7.4,0-13.4-2.3-18-7
		c-4.5-4.8-6.8-10.7-6.8-17.8c0-7,2.4-12.8,7.2-17.7c4.8-4.8,10.6-7.3,17.5-7.3C94.1,146.1,99.9,148.5,104.6,153.3z M71.4,155.1
		c-4.1,4.3-6.2,9.6-6.2,15.9c0,6.4,2,11.7,6,16c4,4.3,9.3,6.4,15.8,6.4c6.3,0,11.5-2.1,15.6-6.5s6.2-9.7,6.2-15.9
		s-2.1-11.5-6.2-15.9c-4.1-4.3-9.3-6.5-15.6-6.5C80.8,148.6,75.6,150.8,71.4,155.1z"/>
	<path class="st0" d="M178.8,195.2H176v-20.7c0.1-9.2,0.1-16.2,0.1-20.8c-0.1,0-0.1,0-0.1-0.1l-20,28.7h-0.7l-20-28.3
		c0,0.1,0,0.1-0.1,0.1v41.1h-2.6v-48.6h0.7l22.5,31.9l22.2-31.9h0.8V195.2z"/>
	<path class="st0" d="M235.8,146.8h2.8v30.5c0,11.2-6.5,18.6-18.4,18.6c-12,0-18.3-7-18.3-18.6v-30.5h2.7v30.1
		c0,10,5.1,16.4,15.6,16.4c10.6,0,15.6-6.3,15.6-16.3V146.8z"/>
	<path class="st0" d="M298,146.8h2.7v48.6H300l-35.7-42.6v42.5h-2.7v-48.7h0.7l35.5,42.6h0.1V146.8z"/>
	<path class="st0" d="M327.4,195.2h-2.8v-48.5h2.8V195.2z"/>
	<path class="st0" d="M387.5,192.5c-3.6,2.1-9.5,3.4-13.9,3.4c-7.7,0-13.8-2.3-18.1-6.9c-4.3-4.6-6.5-10.6-6.5-17.8
		c0-7.3,2.4-13.4,7.2-18.1s10.7-7.2,17.8-7.2c5.1,0,9,0.7,11.7,2.1v2.8c-3.3-1.5-7.2-2.3-11.5-2.3c-6.2,0-11.5,2.1-15.9,6.4
		c-4.3,4.2-6.4,9.7-6.4,16.4c0,6.6,1.9,12,5.8,16c3.9,4,9.2,6.1,16.1,6.1c4.9,0,9.5-1.2,13.7-3.6V192.5z"/>
	<path class="st0" d="M439.8,195.2l-5.1-12.1h-25.8l-5.1,12.1H401l20.5-48.7h0.7l20.5,48.7H439.8z M421.7,152.1l-11.8,28.6h23.8
		L421.7,152.1z"/>
	<path class="st0" d="M497.1,192.5c-3.6,2.1-9.5,3.4-13.9,3.4c-7.7,0-13.8-2.3-18.1-6.9c-4.3-4.6-6.5-10.6-6.5-17.8
		c0-7.3,2.4-13.4,7.2-18.1s10.7-7.2,17.8-7.2c5.1,0,9,0.7,11.7,2.1v2.8c-3.3-1.5-7.2-2.3-11.5-2.3c-6.2,0-11.5,2.1-15.9,6.4
		c-4.3,4.2-6.4,9.7-6.4,16.4c0,6.6,1.9,12,5.8,16c3.9,4,9.2,6.1,16.1,6.1c4.9,0,9.5-1.2,13.7-3.6V192.5z"/>
	<path class="st0" d="M519.3,195.2h-2.8v-48.5h2.8V195.2z"/>
	<path class="st0" d="M583.1,153.3c4.7,4.8,7,10.7,7,17.8c0,7-2.3,13-7,17.8c-4.6,4.8-10.5,7.1-17.5,7.1c-7.4,0-13.4-2.3-18-7
		c-4.5-4.8-6.8-10.7-6.8-17.8c0-7,2.4-12.8,7.2-17.7c4.8-4.8,10.6-7.3,17.5-7.3C572.6,146.1,578.5,148.5,583.1,153.3z M549.9,155.1
		c-4.1,4.3-6.2,9.6-6.2,15.9c0,6.4,2,11.7,6,16c4,4.3,9.3,6.4,15.8,6.4c6.3,0,11.5-2.1,15.6-6.5s6.2-9.7,6.2-15.9
		s-2.1-11.5-6.2-15.9c-4.1-4.3-9.3-6.5-15.6-6.5C559.3,148.6,554.1,150.8,549.9,155.1z M565.3,141.4l-2.4-0.1l10.1-9.1l3.2,1
		L565.3,141.4z"/>
	<path class="st0" d="M647.5,146.8h2.7v48.6h-0.7l-35.7-42.6v42.5h-2.7v-48.7h0.7l35.5,42.6h0.1V146.8z"/>
	<path class="st0" d="M716.8,195.2H714v-20.8L696,146.8h3.2l16.2,24.9h0.2l15.3-24.9h3l-17.1,27.7V195.2z"/>
	<path class="st0" d="M782.5,195.2h-2.9v-48.4H795c5.3,0,9.4,1.5,12.3,4.5c3,3,4.5,6.6,4.5,10.9c0,4.8-1.6,8.7-4.9,11.4
		c-3.3,2.8-7.3,4.2-11.9,4.2h-12.5V195.2z M782.5,149.2v26.3h12.1c4.3,0,7.8-1.2,10.3-3.7s3.8-5.7,3.8-9.5c0-3.6-1.2-6.7-3.8-9.2
		c-2.5-2.6-6.2-3.8-10.9-3.8H782.5z"/>
	<path class="st0" d="M864.8,146.8h2.8v30.5c0,11.2-6.5,18.6-18.4,18.6c-12,0-18.3-7-18.3-18.6v-30.5h2.7v30.1
		c0,10,5.1,16.4,15.6,16.4s15.6-6.3,15.6-16.3V146.8z"/>
	<path class="st0" d="M890.7,195.2v-48.4h16.5c8.6,0,14.2,4.3,14.2,11.7c0,4.4-2.6,8.8-7.3,10.6c7.3,1.8,10.3,7.2,10.3,12.5
		c0,4.3-1.4,7.6-4.3,10.1c-2.9,2.4-6.5,3.7-10.9,3.7H890.7z M893.4,149.3V168H908c3,0,5.6-0.9,7.6-2.6c2.1-1.8,3.1-4,3.1-6.7
		c0-5.6-4.1-9.4-11.1-9.4H893.4z M893.4,170.5v22.2h15.3c8.6,0,12.8-4.8,12.8-11.3c0-3-1.2-5.6-3.4-7.7c-2.3-2.1-5.4-3.2-9.5-3.2
		H893.4z"/>
	<path class="st0" d="M975.1,192.7v2.6h-30v-48.4h2.8v45.9H975.1z"/>
	<path class="st0" d="M996.2,195.2h-2.8v-48.5h2.8V195.2z"/>
	<path class="st0" d="M1056.3,192.5c-3.6,2.1-9.5,3.4-13.9,3.4c-7.7,0-13.8-2.3-18.1-6.9c-4.3-4.6-6.5-10.6-6.5-17.8
		c0-7.3,2.4-13.4,7.2-18.1c4.8-4.8,10.7-7.2,17.8-7.2c5.1,0,9,0.7,11.7,2.1v2.8c-3.3-1.5-7.2-2.3-11.5-2.3c-6.2,0-11.5,2.1-15.8,6.4
		c-4.3,4.2-6.4,9.7-6.4,16.4c0,6.6,1.9,12,5.8,16c3.9,4,9.2,6.1,16.1,6.1c4.9,0,9.5-1.2,13.7-3.6V192.5z"/>
	<path class="st0" d="M1078.5,195.2h-2.8v-48.5h2.8V195.2z"/>
	<path class="st0" d="M1102.3,195.2v-48.4h14.6c7.6,0,13.4,2.1,17.8,6.5c4.3,4.3,6.5,10.2,6.5,17.6c0,7.3-2.1,13.2-6.3,17.7
		c-4.2,4.5-10,6.7-17.4,6.7H1102.3z M1105.1,149.3v43.4h12.3c6.8,0,12-2,15.6-5.9c3.6-4,5.4-9.2,5.4-15.8c0-6.5-1.8-11.8-5.5-15.7
		c-3.6-4-9-5.9-15.9-5.9H1105.1z"/>
	<path class="st0" d="M1195.6,195.2l-5.1-12.1h-25.8l-5.1,12.1h-2.8l20.5-48.7h0.7l20.5,48.7H1195.6z M1177.6,152.1l-11.8,28.6h23.8
		L1177.6,152.1z"/>
	<path class="st0" d="M1216.5,195.2v-48.4h14.6c7.6,0,13.4,2.1,17.8,6.5c4.3,4.3,6.5,10.2,6.5,17.6c0,7.3-2.1,13.2-6.3,17.7
		c-4.2,4.5-10,6.7-17.4,6.7H1216.5z M1219.3,149.3v43.4h12.3c6.8,0,12-2,15.6-5.9c3.6-4,5.4-9.2,5.4-15.8c0-6.5-1.8-11.8-5.5-15.7
		c-3.6-4-9-5.9-15.9-5.9H1219.3z"/>
</g>
<g>
	<path class="st0" d="M40.4,105.1c3-4.5,4.5-11.2,4.5-19.7V24.6h11.7v58.3c0,8.1-0.4,13.5-2.9,21c-3.3,10.7-12,17.4-30,18
		c-8.1,0-14.8-1.5-20.2-4.4v-11.2c5.2,3.3,13.6,5.5,19.4,5.5C31.7,111.9,37.5,109.5,40.4,105.1z"/>
	<path class="st0" d="M144.1,24.6h11.5v60.3c0,10.9-3.3,19.9-10,26.7c-6.7,6.8-16,10.3-27.7,10.3c-23.9,0-37.8-14.5-37.8-37.1V24.6
		h11.6v59.3c0,8,2.2,14.6,6.7,20c4.5,5.2,11,7.8,19.6,7.8c17.3,0,26.2-11.2,26.2-27.3V24.6z"/>
	<path class="st0" d="M238.3,120.4l-9.1-21.6h-45.1l-9,21.6h-11.5L206,23.7h2.2l42.1,96.7H238.3z M206.4,46.5l-18.7,43.8h38
		L207,46.5H206.4z"/>
	<path class="st0" d="M273.9,120.4h-11.5v-97h2.6l66.6,72.9h0.6V24.6h11.5v96.6H341l-66.7-73.2h-0.4V120.4z"/>
	<path class="st0" d="M401.6,120.4V24.7h32.8c10.7,0,19.1,3.2,25.1,9.4c6.1,6.2,9.1,13.6,9.1,22.2c0,9.7-3.3,17.5-9.9,23.5
		c-6.5,5.9-14.6,8.8-24.4,8.8h-20.9v31.8H401.6z M413.4,34.1v44.7h19.7c7.7,0,13.5-2.2,17.4-6.5c3.9-4.5,5.9-9.7,5.9-15.7
		c0-6.2-2.2-11.5-6.4-15.8c-4.2-4.5-10.4-6.7-18.9-6.7H413.4z"/>
	<path class="st0" d="M539.5,120.4l-9.1-21.6h-45.1l-9,21.6h-11.5l42.3-96.7h2.2l42.1,96.7H539.5z M507.6,46.5l-18.7,43.8h38
		l-18.7-43.8H507.6z"/>
	<path class="st0" d="M616.4,68.7c12.3,3.5,18.1,13.5,18.1,24.1c0,8.1-2.9,14.8-8.6,20c-5.7,5.1-12.8,7.7-21.5,7.7H565v-96h36
		c16.7,0,28,8.3,28,23.3c0,8.1-4.5,16.2-12.6,20.3V68.7z M576.5,34.1v30.6h23.1c6.8,0,18.1-3,18.1-15.7c0-9.1-6.4-14.9-17-14.9
		H576.5z M600.7,73.7h-24.2v36.8h25.7c7.7,0,13.2-1.9,16.2-5.5c3.2-3.8,4.8-8.1,4.8-13.1C623.2,81,614.5,73.7,600.7,73.7z"/>
	<path class="st0" d="M653.8,24.6h11.7v86h50v9.9h-61.8V24.6z"/>
	<path class="st0" d="M732.2,108c-8.8-9.3-13.3-21-13.3-35.4c0-13.8,4.8-25.5,14.5-35.1C743.1,27.8,755,23,768.8,23
		c14.2,0,26,4.8,35.4,14.4c9.4,9.4,14.1,21.2,14.1,35.2s-4.6,25.8-14.1,35.2c-9.3,9.4-21,14.1-35.4,14.1
		C753.4,121.9,741.2,117.2,732.2,108z M741.2,100.8c6.8,7.4,16.1,11,27.6,11c11.2,0,20.3-3.8,27.3-11.3c7.1-7.7,10.6-17,10.6-28
		c0-11.2-3.6-20.4-10.7-28c-7.1-7.7-16.1-11.5-27.1-11.5s-20.2,3.8-27.3,11.3c-7.1,7.5-10.6,17-10.6,28.1
		C730.9,84,734.4,93.5,741.2,100.8z"/>
	<path class="st0" d="M937.1,110.6v9.9h-64.8V24.6h61.2v9.7H884v30.9h45.7v9.6H884v35.8H937.1z"/>
	<path class="st0" d="M1013.7,24.6v1.6l-51,84.5h51v9.7h-69.2V119L996,34.3h-45.7v-9.7H1013.7z"/>
	<path class="st0" d="M1093.4,110.6v9.9h-64.8V24.6h61.2v9.7h-49.4v30.9h45.7v9.6h-45.7v35.8H1093.4z"/>
	<path class="st0" d="M1173,34.3h-30.5v86.1h-11.7V34.3h-30.7v-9.9h72.9V34.3z"/>
	<path class="st0" d="M1240.3,120.4l-9.1-21.6h-45.1l-9,21.6h-11.5l42.3-96.7h2.2l42.1,96.7H1240.3z M1208.4,46.5l-18.7,43.8h38
		L1209,46.5H1208.4z"/>
</g>
</svg>
