<?xml version="1.0" encoding="utf-8"?>
<!-- Generator: Adobe Illustrator 21.1.0, SVG Export Plug-In . SVG Version: 6.00 Build 0)  -->
<svg version="1.1" id="Capa_1" xmlns="http://www.w3.org/2000/svg" xmlns:xlink="http://www.w3.org/1999/xlink" x="0px" y="0px"
	 viewBox="0 0 171 16.9" style="enable-background:new 0 0 171 16.9;" xml:space="preserve">
<style type="text/css">
	.st0{fill:#FFFFFF;}
</style>
<g>
	<polygon class="st0" points="5.3,4.6 4.1,4.6 4.1,8.7 0,8.7 0,9.8 4.1,9.8 4.1,14 5.3,14 5.3,9.8 9.4,9.8 9.4,8.7 5.3,8.7 	"/>
	<path class="st0" d="M17.8,6.5c-1.1,0-2.1,0.2-2.9,0.5l0.7-5.6h7.1V0.3h-8.3l-1.1,8.4l0.3,0.1c1.2-0.8,2.5-1.1,3.9-1.1
		c2.6,0,4.4,1.3,4.4,3.9c0,1.2-0.4,2.2-1.2,2.9c-0.8,0.8-1.9,1.1-3.2,1.1c-1.9,0-3.8-0.8-4.8-1.9v1.6c1.3,1,2.9,1.4,4.8,1.4
		c1.7,0,3-0.5,4.2-1.4c1.1-0.9,1.7-2.2,1.7-3.9c0-1.6-0.5-2.9-1.6-3.7C20.7,7,19.4,6.5,17.8,6.5z"/>
	<polygon class="st0" points="27.6,3.5 27.6,5 31.5,2.3 31.5,16.6 32.9,16.6 32.9,0.1 32.5,0.1 	"/>
	<path class="st0" d="M50.7,0c-1.6,0-2.9,0.5-4,1.5c-1,1-1.5,2.2-1.5,3.7c0,1.5,0.5,2.7,1.5,3.7c1,1,2.3,1.4,3.8,1.4
		c1.2,0,2.2-0.3,2.8-0.8l0.1,0.1l-4.3,7h1.5l4.2-7c1-1.6,1.5-3.1,1.5-4.5c0-1.6-0.5-2.8-1.5-3.7C53.7,0.5,52.4,0,50.7,0z M50.6,9.1
		c-2.5,0-4.1-1.6-4.1-3.9s1.6-4,4.1-4c2.6,0,4.1,1.7,4.1,4C54.8,7.6,53.1,9.1,50.6,9.1z"/>
	<path class="st0" d="M64.1,0c-1.6,0-2.9,0.5-4,1.5c-1,1-1.5,2.2-1.5,3.7c0,1.5,0.5,2.7,1.5,3.7c1,1,2.3,1.4,3.8,1.4
		c1.2,0,2.2-0.3,2.8-0.8l0.1,0.1l-4.3,7h1.5l4.2-7c1-1.6,1.5-3.1,1.5-4.5c0-1.6-0.5-2.8-1.5-3.7C67.1,0.5,65.7,0,64.1,0z M64,9.1
		c-2.5,0-4.1-1.6-4.1-3.9s1.6-4,4.1-4c2.6,0,4.1,1.7,4.1,4C68.2,7.6,66.5,9.1,64,9.1z"/>
	<path class="st0" d="M81.6,2c-0.8-1.1-2.3-2-4.2-2c-2.9,0.1-4.4,1.8-5.1,4c-0.5,1.6-0.6,2.9-0.6,4.5c0,2.1,0.3,3.7,1,5.5
		c0.8,1.8,2.4,2.9,4.7,2.9c2.9-0.1,4.5-1.8,5.1-4c0.5-1.6,0.6-2.9,0.6-4.4c0-1.6-0.1-2.9-0.6-4.5C82.3,3.2,82,2.5,81.6,2z
		 M81.1,13.1c-0.6,1.6-1.8,2.6-3.6,2.6c-2.3,0-3.4-1.6-3.9-3.5c-0.4-1.4-0.4-2.4-0.4-3.7c0-1.7,0.1-3,0.7-4.6
		c0.6-1.7,1.8-2.7,3.6-2.7c2.3,0,3.4,1.6,3.9,3.6c0.4,1.4,0.4,2.4,0.4,3.7C81.8,10.1,81.6,11.5,81.1,13.1z"/>
	<path class="st0" d="M96.7,0c-1.6,0-2.9,0.5-4,1.5c-1,1-1.5,2.2-1.5,3.7c0,1.5,0.5,2.7,1.5,3.7c1,1,2.3,1.4,3.8,1.4
		c1.2,0,2.2-0.3,2.8-0.8l0.1,0.1l-4.3,7h1.5l4.2-7c1-1.6,1.5-3.1,1.5-4.5c0-1.6-0.5-2.8-1.5-3.7C99.7,0.5,98.4,0,96.7,0z M96.7,9.1
		c-2.5,0-4.1-1.6-4.1-3.9s1.6-4,4.1-4c2.6,0,4.1,1.7,4.1,4C100.8,7.6,99.1,9.1,96.7,9.1z"/>
	<path class="st0" d="M114.3,2c-0.8-1.1-2.3-2-4.2-2c-2.9,0.1-4.4,1.8-5.1,4c-0.5,1.6-0.6,2.9-0.6,4.5c0,2.1,0.3,3.7,1,5.5
		c0.8,1.8,2.4,2.9,4.7,2.9c2.9-0.1,4.5-1.8,5.1-4c0.5-1.6,0.6-2.9,0.6-4.4c0-1.6-0.1-2.9-0.6-4.5C115,3.2,114.7,2.5,114.3,2z
		 M113.7,13.1c-0.6,1.6-1.8,2.6-3.6,2.6c-2.3,0-3.4-1.6-3.9-3.5c-0.4-1.4-0.4-2.4-0.4-3.7c0-1.7,0.1-3,0.7-4.6
		c0.6-1.7,1.8-2.7,3.6-2.7c2.3,0,3.4,1.6,3.9,3.6c0.4,1.4,0.4,2.4,0.4,3.7C114.5,10.1,114.3,11.5,113.7,13.1z"/>
	<path class="st0" d="M121.1,11.6c0.6-0.5,1.1-0.9,1.5-1.2c0.4-0.3,1-0.7,1.8-1.1c2.7-1.6,4-3.3,4-5c0-1.4-0.5-2.4-1.5-3.2
		c-1-0.7-2.2-1.1-3.6-1.1c-1.4,0-2.5,0.4-3.5,1.2c-1,0.8-1.5,1.9-1.5,3.1c0,0.5,0,0.9,0.1,1.3l1.5,0.2c-0.1-0.4-0.1-0.8-0.1-1.2
		c0-2,1.3-3.5,3.5-3.5c2.2,0,3.6,1,3.6,3.1c0,0.9-0.5,1.7-1.4,2.5c-0.9,0.8-1.4,1.1-2.5,1.8c-0.8,0.5-1.4,0.9-1.8,1.2
		c-0.5,0.3-0.9,0.7-1.4,1.2c-0.5,0.5-0.8,0.9-1.1,1.4c-0.5,1-0.9,2.3-0.9,4l0.4,0.2h10.5v-1.2h-9.3C119.4,14,119.9,12.7,121.1,11.6z
		"/>
	<path class="st0" d="M146.9,2c-0.8-1.1-2.3-2-4.2-2c-2.9,0.1-4.4,1.8-5.1,4c-0.5,1.6-0.6,2.9-0.6,4.5c0,2.1,0.3,3.7,1,5.5
		c0.8,1.8,2.4,2.9,4.7,2.9c2.9-0.1,4.5-1.8,5.1-4c0.5-1.6,0.6-2.9,0.6-4.4c0-1.6-0.1-2.9-0.6-4.5C147.7,3.2,147.3,2.5,146.9,2z
		 M146.4,13.1c-0.6,1.6-1.8,2.6-3.6,2.6c-2.3,0-3.4-1.6-3.9-3.5c-0.4-1.4-0.4-2.4-0.4-3.7c0-1.7,0.1-3,0.7-4.6
		c0.6-1.7,1.8-2.7,3.6-2.7c2.3,0,3.4,1.6,3.9,3.6c0.4,1.4,0.4,2.4,0.4,3.7C147.1,10.1,146.9,11.5,146.4,13.1z"/>
	<path class="st0" d="M156.1,0c-1.6,0-2.9,0.5-4,1.5c-1,1-1.5,2.2-1.5,3.7c0,1.5,0.5,2.7,1.5,3.7c1,1,2.3,1.4,3.8,1.4
		c1.2,0,2.2-0.3,2.8-0.8l0.1,0.1l-4.3,7h1.5l4.2-7c1-1.6,1.5-3.1,1.5-4.5c0-1.6-0.5-2.8-1.5-3.7C159.1,0.5,157.8,0,156.1,0z
		 M156,9.1c-2.5,0-4.1-1.6-4.1-3.9s1.6-4,4.1-4c2.6,0,4.1,1.7,4.1,4C160.2,7.6,158.5,9.1,156,9.1z"/>
	<polygon class="st0" points="170.6,0.1 165.7,3.5 165.7,5 169.6,2.3 169.6,16.6 171,16.6 171,0.1 	"/>
</g>
</svg>
